<svg xmlns="http://www.w3.org/2000/svg" version="1.1" xmlns:xlink="http://www.w3.org/1999/xlink" xmlns:svgjs="http://svgjs.dev/svgjs" width="1000" height="1000"><g clip-path="url(#SvgjsClipPath1012)"><rect width="1000" height="1000" fill="#ffffff"></rect><g transform="matrix(8.053381176499503,0,0,8.053381176499503,150,180.15996534647377)"><svg xmlns="http://www.w3.org/2000/svg" version="1.1" xmlns:xlink="http://www.w3.org/1999/xlink" xmlns:svgjs="http://svgjs.dev/svgjs" width="86.92001342773438" height="79.43000030517578"><svg id="SvgjsSvg1001" width="86.92001342773438" height="79.43000030517578" xmlns="http://www.w3.org/2000/svg" version="1.1" xmlns:xlink="http://www.w3.org/1999/xlink" xmlns:svgjs="http://svgjs.com/svgjs" viewBox="0 0 86.92001342773438 79.43000030517578"><defs id="SvgjsDefs1002"><clipPath id="SvgjsClipPath1012"><rect width="1000" height="1000" x="0" y="0" rx="350" ry="350"></rect></clipPath></defs><rect id="SvgjsRect1008" width="86.92001342773438" height="79.43000030517578" fill="#ffffff"></rect><g id="SvgjsG1009" transform="matrix(1,0,0,1,-28.919979095458984,-42.87999725341797)"><title>0058_cubes_and_shapes_verti</title><path id="color_2" d="M115.84,70.12A27.24,27.24,0,1,1,88.6,42.88,27.23,27.23,0,0,1,115.84,70.12Z" fill="#84ad8d"></path><path id="color_1" d="M98.27,63.93A2.51,2.51,0,0,0,98,62.78a2.47,2.47,0,0,0-.85-.85s0-.07-.09-.09L64.87,43.28a2.53,2.53,0,0,0-2.55,0L30.16,61.84s-.05.07-.09.09a2.44,2.44,0,0,0-.84.85,2.51,2.51,0,0,0-.31,1.15s0,.08,0,.12v37.13a2.54,2.54,0,0,0,1.27,2.21L62.32,122s.08,0,.12,0a2.5,2.5,0,0,0,1.15.31,2.57,2.57,0,0,0,1.16-.31s.08,0,.12,0L97,103.39a2.55,2.55,0,0,0,1.28-2.21V64.05S98.27,64,98.27,63.93ZM93.19,85.82c-4,4.66-6.43,12-6.71,17.77l-10.75,6.2c8-11,11.54-22.36,11.73-38l5.73-3.32ZM40.55,103.49a11.35,11.35,0,0,1-.27-2.67c0-1.22.22-3,.41-5,.22-2.28.45-4.64.45-6.16,0-6.89-2.33-8.87-4.79-11A18.6,18.6,0,0,1,34,76.44v-8l10.53,6.08a18,18,0,0,0,.75,9.5,21,21,0,0,0,1.21,2.58A12.71,12.71,0,0,1,47.87,90a12.89,12.89,0,0,1,0,3.92c-.07.61-.13,1.23-.16,1.84a11.09,11.09,0,0,0,2.68,8c2,2.09,4.92,3.14,8.72,3.14a13.86,13.86,0,0,0,1.95-.17v8.62Zm7.73-46.22a15.32,15.32,0,0,0,6.19,1.28,25.61,25.61,0,0,0,9.22-2c5.48-2.13,9-1.94,11.58-1.41l9.78,5.64c.16,2.16.28,4.26.34,6.26l-5.93,3.43C78,65.85,74.18,61.35,65,61.35a28.48,28.48,0,0,0-8,1c-4.34,1.23-8.53,4-10.66,7.17a1.19,1.19,0,0,1-.08.16l-9.78-5.65Zm39.1,8.67c0-1.27-.11-2.56-.19-3.88l3.45,2ZM49.87,89.54a14.64,14.64,0,0,0-1.58-3.86,19.77,19.77,0,0,1-1.11-2.34,16.12,16.12,0,0,1-.81-7.72l6.18,3.57c0,.15,0,.29,0,.44,0,11.11,4.33,17.19,8.52,17.48v7.55a12.4,12.4,0,0,1-1.95.18c-3.22,0-5.66-.84-7.24-2.51a9,9,0,0,1-2.12-6.52c0-.58.09-1.16.15-1.73A14.71,14.71,0,0,0,49.87,89.54ZM69.9,82c0,2-.75,7.8-3.76,11V84.09l3.76-2.17Zm-6.31-2.33-8-4.62a6.26,6.26,0,0,1,5.67-3.91c4.34,0,6.5,2.77,7.58,5.51ZM61,84.09v11c-2.74-.35-6.26-5.42-6.45-14.68Zm5.1,11.6c4.61-3.17,5.8-10.63,5.8-13.69,0-.37,0-.8-.07-1.21l6.39-3.7c-.18,7.66-4.4,20.39-12.12,25.5Zm4.48-20.08c-1.44-3.42-4.26-6.51-9.37-6.51A8.28,8.28,0,0,0,53.81,74l-5.73-3.32v0c1.85-2.71,5.68-5.27,9.53-6.36A26.76,26.76,0,0,1,65,63.39c8,0,11.35,3.8,12.61,8.18ZM66.14,105c9.34-5.15,14.19-19.86,14.19-28.49,0-.2,0-.42,0-.63L85.41,73c-.34,16.16-4.48,27.3-13.8,38.87a3.78,3.78,0,0,0-.21.45l-5.26,3ZM63.59,48.44l7.58,4.37A25.39,25.39,0,0,0,63,54.68c-5.64,2.19-9.47,2.13-12.36,1.26ZM34,79.36c.35.32.7.63,1,.91,2.28,1.94,4.08,3.47,4.08,9.42,0,1.42-.22,3.73-.44,6-.2,2-.38,3.83-.42,5.12,0,.41,0,.9,0,1.42L34,99.71Zm54.65,23a31.13,31.13,0,0,1,4.55-13.12v10.5Z" fill="#293437"></path></g></svg></svg></g></g></svg>